<svg width="800" height="800" viewBox="0 0 800 800" fill="none" xmlns="http://www.w3.org/2000/svg">
<g clip-path="url(#clip0_5_7)">
<path d="M675 50C688.261 50 700.979 55.2678 710.355 64.6447C719.732 74.0215 725 86.7392 725 100V700C725 713.261 719.732 725.979 710.355 735.355C700.979 744.732 688.261 750 675 750H125C111.739 750 99.0215 744.732 89.6447 735.355C80.2678 725.979 75 713.261 75 700V100C75 86.7392 80.2678 74.0215 89.6447 64.6447C99.0215 55.2678 111.739 50 125 50H675ZM125 0C98.4784 0 73.043 10.5357 54.2893 29.2893C35.5357 48.043 25 73.4784 25 100V700C25 726.522 35.5357 751.957 54.2893 770.711C73.043 789.464 98.4784 800 125 800H675C701.522 800 726.957 789.464 745.711 770.711C764.464 751.957 775 726.522 775 700V100C775 73.4784 764.464 48.043 745.711 29.2893C726.957 10.5357 701.522 0 675 0L125 0Z" fill="#635FC7"/>
<path d="M325 150C325 136.739 330.268 124.021 339.645 114.645C349.021 105.268 361.739 100 375 100H425C438.261 100 450.979 105.268 460.355 114.645C469.732 124.021 475 136.739 475 150V300C475 313.261 469.732 325.979 460.355 335.355C450.979 344.732 438.261 350 425 350H375C361.739 350 349.021 344.732 339.645 335.355C330.268 325.979 325 313.261 325 300V150ZM125 150C125 136.739 130.268 124.021 139.645 114.645C149.021 105.268 161.739 100 175 100H225C238.261 100 250.979 105.268 260.355 114.645C269.732 124.021 275 136.739 275 150V500C275 513.261 269.732 525.979 260.355 535.355C250.979 544.732 238.261 550 225 550H175C161.739 550 149.021 544.732 139.645 535.355C130.268 525.979 125 513.261 125 500V150ZM525 150C525 136.739 530.268 124.021 539.645 114.645C549.021 105.268 561.739 100 575 100H625C638.261 100 650.979 105.268 660.355 114.645C669.732 124.021 675 136.739 675 150V650C675 663.261 669.732 675.979 660.355 685.355C650.979 694.732 638.261 700 625 700H575C561.739 700 549.021 694.732 539.645 685.355C530.268 675.979 525 663.261 525 650V150Z" fill="#635FC7"/>
</g>
<defs>
<clipPath id="clip0_5_7">
<rect width="800" height="800" fill="white"/>
</clipPath>
</defs>
</svg>
